<svg version="1.1" id="Layer_1" xmlns="http://www.w3.org/2000/svg" xmlns:xlink="http://www.w3.org/1999/xlink" x="0px" y="0px"
	 width="100%" viewBox="0 0 192 179" enable-background="new 0 0 192 179" xml:space="preserve">
<path fill="#FCFDFD" opacity="1.000000" stroke="none" 
	d="
M193.000000,69.000000 
	C193.000000,106.333336 193.000000,143.166672 193.000000,180.000000 
	C129.000000,180.000000 65.000000,180.000000 1.000000,180.000000 
	C1.000000,120.333336 1.000000,60.666668 1.000000,1.000000 
	C65.000000,1.000000 129.000000,1.000000 193.000000,1.000000 
	C193.000000,23.500000 193.000000,46.000000 193.000000,69.000000 
M58.997772,67.997612 
	C58.997772,67.997612 59.024700,67.953285 58.931438,67.211906 
	C56.818512,64.047310 54.500950,63.729084 51.163414,66.878952 
	C47.333668,69.118576 48.035866,72.592163 50.339581,74.712273 
	C51.890820,76.139870 56.557941,76.805817 57.567688,75.715775 
	C60.866478,72.154694 64.652534,72.791580 68.527969,72.782280 
	C74.677353,72.767532 80.835007,72.598808 86.971260,72.882462 
	C88.836494,72.968689 90.896904,74.003082 92.418068,75.183121 
	C94.864677,77.081055 96.902695,77.735275 98.983894,74.983566 
	C98.983894,74.983566 98.977615,75.034096 99.698433,75.074303 
	C103.736664,72.672737 102.870155,70.165672 100.089462,67.294525 
	C97.280548,64.394218 94.984344,65.372299 92.374382,67.546021 
	C91.118469,68.592026 89.411163,69.700562 87.891052,69.725365 
	C78.949402,69.871201 70.002686,69.705940 60.915680,69.082321 
	C60.292046,68.713470 59.668407,68.344627 58.997772,67.997612 
M88.836121,100.138687 
	C88.435173,94.620377 90.040695,88.897057 87.956329,83.550735 
	C87.322716,83.572891 86.689110,83.595055 86.055496,83.617210 
	C86.055496,89.417931 86.055496,95.218658 85.937302,101.865776 
	C84.440971,108.455162 89.687943,111.237732 93.537369,115.797432 
	C93.418739,116.773445 93.298943,117.749313 93.181702,118.725487 
	C92.727478,122.507530 94.417770,124.986717 98.097305,125.529320 
	C101.613556,126.047844 103.917000,123.998131 104.419510,120.612419 
	C104.976456,116.859970 102.843353,114.762222 99.233879,114.031158 
	C97.810738,113.742920 96.404945,113.369026 94.686470,112.430290 
	C91.648933,109.181656 87.673401,106.433067 88.836121,100.138687 
M26.583813,57.686081 
	C29.472975,53.162579 32.362137,48.639072 35.790783,43.742451 
	C39.965767,39.202480 44.140747,34.662510 48.843464,29.907930 
	C49.451752,29.246801 50.060036,28.585672 51.337898,27.727327 
	C56.703014,24.580662 61.834801,20.917341 67.471382,18.371790 
	C102.169746,2.701584 141.098190,12.107158 165.184479,41.659863 
	C165.893356,42.529606 167.135956,42.964355 168.380890,44.328941 
	C170.947189,49.225754 173.513504,54.122566 176.224030,59.723831 
	C178.548737,66.234406 180.873459,72.744980 183.198166,79.255554 
	C183.979080,71.841560 182.723221,64.964951 178.138550,58.142487 
	C176.430222,52.173496 174.241348,46.517136 168.829758,42.613083 
	C164.006119,37.227936 159.734955,31.182407 154.247086,26.591198 
	C141.722626,16.113087 126.975197,10.124723 110.693787,8.584354 
	C87.963173,6.433833 67.217422,11.649259 48.724419,26.638540 
	C47.598820,27.693247 46.473221,28.747952 44.739468,29.977703 
	C40.859203,34.331974 36.978939,38.686245 32.585487,43.474194 
	C29.969881,47.948605 27.354277,52.423016 24.198666,57.338505 
	C22.463655,62.894131 20.728645,68.449760 18.505630,74.627045 
	C18.081257,84.063797 17.656881,93.500542 17.124117,103.695518 
	C17.618498,105.810791 18.112879,107.926056 18.688623,110.868973 
	C19.653790,118.692841 25.636827,133.014069 29.470467,135.461227 
	C28.929712,133.071976 27.917200,130.850098 27.124136,128.552490 
	C25.000521,122.400078 22.970968,116.215202 21.001717,109.229248 
	C20.423464,106.313133 19.845211,103.397026 19.400902,99.623634 
	C19.514111,94.410835 19.627317,89.198044 19.921408,83.510513 
	C19.894547,83.343315 19.867687,83.176125 20.003700,82.201065 
	C20.400522,79.480949 20.797344,76.760834 21.644272,73.484283 
	C23.098038,68.327698 24.551805,63.171116 26.583813,57.686081 
M181.957153,109.769081 
	C180.604874,114.142570 179.432938,118.582748 177.847534,122.870033 
	C176.380829,126.836357 174.471481,130.638992 172.757065,134.513718 
	C173.498276,134.809448 174.239471,135.105164 174.980667,135.400894 
	C177.389069,129.747787 179.948395,124.152451 182.143875,118.417839 
	C183.287552,115.430557 183.789856,112.197723 184.909622,108.337181 
	C184.909622,100.444893 184.909622,92.552597 184.909622,84.660309 
	C184.569595,84.651543 184.229553,84.642776 183.889526,84.634010 
	C183.318359,92.761292 182.747192,100.888580 181.957153,109.769081 
M129.391068,159.604202 
	C129.184174,156.961273 128.977280,154.318329 128.718063,151.006943 
	C125.505569,154.621170 125.530548,171.158737 128.099533,173.949097 
	C129.095581,169.631241 130.086273,165.336533 131.768936,160.875458 
	C135.912552,159.310791 137.715088,161.150360 137.849808,165.171890 
	C137.948013,168.104050 137.869019,171.042130 137.869019,173.977570 
	C138.688461,174.000793 139.507904,174.024017 140.327347,174.047241 
	C140.327347,171.114960 140.716431,168.112869 140.206863,165.271988 
	C139.782944,162.908630 138.850418,159.641907 137.137222,158.783936 
	C135.421570,157.924728 132.459137,159.555023 129.391068,159.604202 
M63.993855,105.861710 
	C64.042427,107.576324 64.090996,109.290932 63.996803,111.871315 
	C64.046646,113.914459 64.096481,115.957603 64.000237,118.848869 
	C64.046738,120.566437 64.093239,122.284004 63.990768,124.907692 
	C63.990768,127.316071 63.990768,129.724442 63.990768,131.947189 
	C69.870697,131.947189 75.002106,131.947189 80.560127,131.900040 
	C80.815720,131.672455 80.856949,131.410904 80.827606,130.268524 
	C80.750839,128.845047 80.674072,127.421570 80.780785,125.139580 
	C80.725540,123.097107 80.670296,121.054642 80.802559,118.150993 
	C80.743958,116.103691 80.685349,114.056389 80.807953,111.224655 
	C80.745132,110.157921 80.682312,109.091179 80.811539,107.175774 
	C80.750984,105.441017 80.690430,103.706261 80.801300,101.131508 
	C80.751251,99.420654 80.701195,97.709801 80.837463,95.184631 
	C80.775024,93.799454 80.712585,92.414268 80.836441,90.143166 
	C80.836441,88.097374 80.836441,86.051575 80.836441,83.985512 
	C74.840919,83.985512 69.649414,83.985512 64.121651,83.985512 
	C64.121651,85.832909 64.121651,87.423676 63.997292,89.881264 
	C64.047935,91.921211 64.098572,93.961166 64.005287,96.848351 
	C64.043091,98.563736 64.080894,100.279121 63.971043,102.741882 
	C64.020905,103.498619 64.070770,104.255348 63.993855,105.861710 
M138.268311,67.218185 
	C137.841476,65.479912 137.414658,63.741642 136.992554,61.298271 
	C136.039139,59.464180 135.085709,57.630089 134.034698,55.207737 
	C133.438309,54.443062 132.841934,53.678391 132.016861,52.267658 
	C126.742859,46.217194 120.014915,42.672935 112.089020,42.518150 
	C96.374222,42.211258 80.648582,42.455971 64.927513,42.502956 
	C64.685944,42.503677 64.445541,42.892403 64.103630,43.187061 
	C64.103630,45.075222 64.103630,47.042995 63.980949,49.803638 
	C64.029411,50.869705 64.077873,51.935768 63.977322,53.888790 
	C63.977322,55.492443 63.977322,57.096096 63.977322,59.060062 
	C80.289497,59.060062 96.067719,59.060062 112.365974,59.503929 
	C114.497414,60.699188 116.628853,61.894451 118.992447,63.737640 
	C119.747475,65.154930 120.502495,66.572212 121.207619,68.828041 
	C121.262299,70.227654 121.316986,71.627274 121.075218,73.740883 
	C120.560646,75.444305 120.046066,77.147736 119.066345,79.167358 
	C118.308205,79.987106 117.550064,80.806854 115.991707,81.859612 
	C108.874924,82.665665 101.758141,83.471710 94.485237,84.295441 
	C94.485237,86.118416 94.485237,88.063095 94.290108,90.751007 
	C94.366417,91.507919 94.442726,92.264824 94.304024,93.861923 
	C94.304024,95.794067 94.304024,97.726219 94.304024,99.593872 
	C96.181694,100.126846 97.715424,100.562187 99.458054,101.591530 
	C100.856346,103.433304 102.254639,105.275070 103.807129,107.783852 
	C104.888863,109.183617 105.970596,110.583382 107.228165,112.617432 
	C108.425972,114.185303 109.623772,115.753181 110.920204,117.887680 
	C111.496651,118.632698 112.073097,119.377716 112.862213,120.773315 
	C114.195190,122.536644 115.528168,124.299965 117.042679,126.769653 
	C118.615883,128.581924 120.038841,131.765121 121.789627,131.957001 
	C127.744110,132.609558 133.814285,132.206451 140.966583,132.206451 
	C138.536316,129.028549 136.947556,126.951057 135.160583,124.223198 
	C134.118942,122.793762 133.077316,121.364326 131.877441,119.319443 
	C130.734085,117.829391 129.590714,116.339333 128.217880,114.203415 
	C127.165657,112.767792 126.113434,111.332161 124.891983,109.256363 
	C123.674683,107.665413 122.457375,106.074471 121.048912,103.829727 
	C120.206253,102.181190 119.363586,100.532661 119.242355,98.760490 
	C121.845139,97.207191 124.447922,95.653893 127.710487,93.957352 
	C128.804138,92.900520 129.897781,91.843689 131.630936,90.654373 
	C132.814240,88.793190 133.997543,86.931999 135.703293,84.623695 
	C136.406906,82.415283 137.110535,80.206871 138.030167,77.301414 
	C138.188583,75.877342 138.347000,74.453278 138.749054,72.326927 
	C138.570801,70.885765 138.392563,69.444595 138.268311,67.218185 
M10.383795,168.343399 
	C12.169798,164.777786 15.064406,164.731659 17.599838,167.985443 
	C19.300097,170.167419 19.494534,174.150787 24.152128,173.834854 
	C22.497433,170.931808 21.048344,168.389496 19.450249,165.585739 
	C23.381075,163.273392 25.637255,160.000946 23.331526,155.971924 
	C19.681038,149.593048 13.344011,152.888168 8.219221,152.041397 
	C8.219221,159.706329 8.219221,166.855881 8.219221,174.005417 
	C8.762643,174.032059 9.306064,174.058701 9.849485,174.085342 
	C10.024024,172.471405 10.198564,170.857452 10.383795,168.343399 
M162.896835,167.696609 
	C161.987183,165.978500 161.077530,164.260376 160.110001,162.432968 
	C163.138153,157.484634 162.137634,153.152710 157.555084,152.794785 
	C153.819504,152.503021 150.042969,152.735474 146.209274,152.735474 
	C146.209274,160.249146 146.209274,166.959244 146.209274,174.084549 
	C149.669098,174.084549 152.791946,174.122787 155.913452,174.074692 
	C159.667908,174.016846 162.309494,172.500214 162.896835,167.696609 
M101.621277,158.455811 
	C97.703812,157.216553 93.625916,157.705276 92.238823,161.570648 
	C91.168190,164.554184 91.490967,168.841110 92.946785,171.635483 
	C93.863647,173.395370 97.979279,173.903503 100.726044,174.115036 
	C102.040306,174.216278 103.508118,172.323654 104.906387,171.334091 
	C104.658478,170.983795 104.410561,170.633484 104.162651,170.283188 
	C96.982933,173.195084 95.381943,172.757324 94.192482,167.170410 
	C98.186874,167.170410 102.101318,167.170410 106.015770,167.170410 
	C106.405602,166.771484 106.795441,166.372559 107.185280,165.973633 
	C105.564392,163.586304 103.943512,161.198990 101.621277,158.455811 
M84.138504,157.795761 
	C83.771980,154.718399 85.838066,154.894852 87.933586,154.768448 
	C89.318954,154.684875 90.672363,154.071609 92.040085,153.695496 
	C91.910141,153.343918 91.780205,152.992355 91.650261,152.640778 
	C85.757286,152.640778 79.864304,152.640778 73.971329,152.640778 
	C73.916428,153.147263 73.861526,153.653748 73.806633,154.160217 
	C76.281982,154.589569 78.757332,155.018906 81.978546,155.577606 
	C81.978546,161.818710 81.978546,167.925766 81.978546,174.032837 
	C82.696877,174.035660 83.415215,174.038483 84.133545,174.041306 
	C84.133545,168.940979 84.133545,163.840668 84.138504,157.795761 
M42.088245,166.677475 
	C43.924194,164.167145 45.760143,161.656815 47.839874,158.813156 
	C42.817924,158.813156 39.021507,158.813156 35.225086,158.813156 
	C35.243408,159.187469 35.261730,159.561783 35.280056,159.936081 
	C37.746201,160.215363 40.212345,160.494644 43.389317,160.854416 
	C39.972195,165.273880 37.027439,169.082428 33.552872,173.576202 
	C39.064648,173.576202 43.252930,173.576202 47.441208,173.576202 
	C47.467316,173.113998 47.493423,172.651794 47.519531,172.189590 
	C44.757084,172.037598 41.994637,171.885605 38.579430,171.697708 
	C39.836670,169.862625 40.730831,168.557495 42.088245,166.677475 
M117.391907,160.416122 
	C119.078362,160.928284 120.764816,161.440460 122.451263,161.952621 
	C120.239769,157.710678 116.914490,157.153748 113.283279,158.702133 
	C109.599953,160.272705 108.461655,163.501495 108.751671,167.291840 
	C109.059761,171.318420 111.376991,173.671356 115.263115,174.238495 
	C118.335670,174.686905 121.321503,174.420074 123.160385,170.141418 
	C118.617500,171.050430 113.704063,174.795898 111.755692,168.183624 
	C110.628952,164.359772 112.258766,161.348175 117.391907,160.416122 
M51.094654,152.883759 
	C50.922565,159.909866 50.903725,166.925705 51.068325,173.929276 
	C51.633083,173.945618 52.197842,173.961960 52.762600,173.978302 
	C53.671497,171.614288 54.580391,169.250275 55.640770,166.492249 
	C57.415192,168.058609 58.503796,169.019577 59.592403,169.980530 
	C59.851398,169.835281 60.110397,169.690033 60.369392,169.544769 
	C59.659904,167.887863 58.950417,166.230957 58.208500,164.498306 
	C59.746380,162.843460 61.310551,161.160309 62.874725,159.477158 
	C62.586674,159.118851 62.298622,158.760544 62.010571,158.402237 
	C59.300091,160.591354 56.589611,162.780472 53.051716,165.637863 
	C53.051716,161.603882 53.178013,158.521622 52.986183,155.459259 
	C52.914864,154.320709 52.098618,153.228821 51.094654,152.883759 
M186.050674,158.648010 
	C186.050674,156.326706 186.050674,154.005402 186.050674,150.718445 
	C184.343491,151.837769 183.402664,152.163345 183.398529,152.500458 
	C183.319427,158.928833 182.976715,165.390503 183.521896,171.774094 
	C183.781525,174.814148 186.347137,175.268875 188.078476,173.962616 
	C187.263275,171.153107 186.398315,169.122726 186.135437,167.017181 
	C185.830597,164.575531 186.054581,162.067871 186.050674,158.648010 
M174.802139,168.291077 
	C174.991074,174.323151 175.772385,175.043396 179.537781,173.176926 
	C174.183044,166.916779 179.325287,158.544128 176.299515,151.896545 
	C175.800171,151.945572 175.300842,151.994583 174.801498,152.043610 
	C174.801498,157.139236 174.801498,162.234879 174.802139,168.291077 
M28.098410,168.372314 
	C28.312683,170.306961 28.526958,172.241623 28.741232,174.176270 
	C29.258554,174.081497 29.775875,173.986725 30.293198,173.891953 
	C30.293198,168.661224 30.293198,163.430481 30.293198,158.199753 
	C29.562141,158.193756 28.831083,158.187759 28.100027,158.181778 
	C28.100027,161.265259 28.100027,164.348755 28.098410,168.372314 
M70.775986,161.028137 
	C70.383614,160.052368 69.991249,159.076599 69.598877,158.100830 
	C69.225784,158.214844 68.852684,158.328857 68.479591,158.442871 
	C68.479591,163.603699 68.479591,168.764542 68.479591,173.925369 
	C69.102974,173.967850 69.726357,174.010345 70.349731,174.052826 
	C70.493568,170.006851 70.637405,165.960876 70.775986,161.028137 
M168.253540,158.357788 
	C165.384598,163.517380 167.330597,168.702789 167.286896,173.877533 
	C167.853790,173.897644 168.420700,173.917740 168.987610,173.937836 
	C168.987610,168.870651 168.987610,163.803467 168.253540,158.357788 
z"/>
<path fill="#36D2EA" opacity="1.000000" stroke="none" 
	d="
M49.294819,26.358795 
	C67.217422,11.649259 87.963173,6.433833 110.693787,8.584354 
	C126.975197,10.124723 141.722626,16.113087 154.247086,26.591198 
	C159.734955,31.182407 164.006119,37.227936 168.559677,42.957020 
	C168.289597,43.300957 168.129700,43.601917 168.129700,43.601917 
	C167.135956,42.964355 165.893356,42.529606 165.184479,41.659863 
	C141.098190,12.107158 102.169746,2.701584 67.471382,18.371790 
	C61.834801,20.917341 56.703014,24.580662 50.688454,27.405127 
	C49.790943,26.841549 49.542881,26.600172 49.294819,26.358795 
z"/>
<path fill="#30CAE9" opacity="1.000000" stroke="none" 
	d="
M64.103630,49.010769 
	C64.103630,47.042995 64.103630,45.075222 64.103630,43.187061 
	C64.445541,42.892403 64.685944,42.503677 64.927513,42.502956 
	C80.648582,42.455971 96.374222,42.211258 112.089020,42.518150 
	C120.014915,42.672935 126.742859,46.217194 131.758743,52.615196 
	C131.003937,52.973251 130.507233,52.983765 129.844971,52.680141 
	C126.336960,51.242805 123.055557,49.437164 119.640015,49.131802 
	C111.327682,48.388641 102.952263,48.061378 94.603798,48.086155 
	C84.436249,48.116322 74.270279,48.678635 64.103630,49.010769 
z"/>
<path fill="#2AB8E3" opacity="1.000000" stroke="none" 
	d="
M130.010544,52.994278 
	C130.507233,52.983765 131.003937,52.973251 131.873093,52.938229 
	C132.841934,53.678391 133.438309,54.443062 133.829376,55.815678 
	C130.096146,56.949219 126.577599,57.552444 123.037773,57.979111 
	C119.317780,58.427502 115.577400,58.706848 111.845932,59.060062 
	C96.067719,59.060062 80.289497,59.060062 63.977322,59.060062 
	C63.977322,57.096096 63.977322,55.492443 64.511612,53.444767 
	C86.700783,52.998589 108.355659,52.996437 130.010544,52.994278 
z"/>
<path fill="#24BFE6" opacity="1.000000" stroke="none" 
	d="
M129.844971,52.680145 
	C108.355659,52.996437 86.700783,52.998589 64.586113,53.001289 
	C64.077873,51.935768 64.029411,50.869705 64.042290,49.407204 
	C74.270279,48.678635 84.436249,48.116322 94.603798,48.086155 
	C102.952263,48.061378 111.327682,48.388641 119.640015,49.131802 
	C123.055557,49.437164 126.336960,51.242805 129.844971,52.680145 
z"/>
<path fill="#4782C3" opacity="1.000000" stroke="none" 
	d="
M94.485237,90.007767 
	C94.485237,88.063095 94.485237,86.118416 94.485237,84.295441 
	C101.758141,83.471710 108.874924,82.665665 116.630356,82.078522 
	C117.865158,82.533615 118.443489,82.902031 119.060287,82.985229 
	C124.429886,83.709435 129.806396,84.382523 135.180847,85.070808 
	C133.997543,86.931999 132.814240,88.793190 131.291840,90.327446 
	C129.517014,89.334000 128.052689,88.037529 126.650047,88.101128 
	C115.921684,88.587532 105.205330,89.338829 94.485237,90.007767 
z"/>
<path fill="#42A9D7" opacity="1.000000" stroke="none" 
	d="
M61.057674,69.645500 
	C70.002686,69.705940 78.949402,69.871201 87.891052,69.725365 
	C89.411163,69.700562 91.118469,68.592026 92.374382,67.546021 
	C94.984344,65.372299 97.280548,64.394218 100.089462,67.294525 
	C102.870155,70.165672 103.736664,72.672737 99.296890,74.686363 
	C99.783554,72.119682 100.716484,69.679024 97.673225,68.702553 
	C96.727074,68.398972 94.251480,69.805511 94.055061,70.755600 
	C93.243248,74.682320 96.064072,75.077316 99.034378,74.976891 
	C96.902695,77.735275 94.864677,77.081055 92.418068,75.183121 
	C90.896904,74.003082 88.836494,72.968689 86.971260,72.882462 
	C80.835007,72.598808 74.677353,72.767532 68.527969,72.782280 
	C64.652534,72.791580 60.866478,72.154694 57.567688,75.715775 
	C56.557941,76.805817 51.890820,76.139870 50.339581,74.712273 
	C48.035866,72.592163 47.333668,69.118576 51.920109,66.855759 
	C53.295506,66.916801 53.914204,67.001030 54.668709,67.103752 
	C54.384830,67.561348 54.267277,67.802452 54.103462,68.006409 
	C53.118481,69.232780 52.122890,70.450615 51.130844,71.671310 
	C52.286098,72.427658 53.441349,73.184006 54.596603,73.940361 
	C55.405865,72.626144 56.154678,71.268967 57.046787,70.013618 
	C57.592308,69.245979 58.357929,68.634758 59.024700,67.953285 
	C59.024700,67.953285 58.997772,67.997612 59.051117,68.310760 
	C59.755535,68.964439 60.406605,69.304970 61.057674,69.645500 
z"/>
<path fill="#606D79" opacity="1.000000" stroke="none" 
	d="
M10.378448,168.793457 
	C10.198564,170.857452 10.024024,172.471405 9.849485,174.085342 
	C9.306064,174.058701 8.762643,174.032059 8.219221,174.005417 
	C8.219221,166.855881 8.219221,159.706329 8.219221,152.041397 
	C13.344011,152.888168 19.681038,149.593048 23.331526,155.971924 
	C25.637255,160.000946 23.381075,163.273392 19.450249,165.585739 
	C21.048344,168.389496 22.497433,170.931808 24.152128,173.834854 
	C19.494534,174.150787 19.300097,170.167419 17.599838,167.985443 
	C15.064406,164.731659 12.169798,164.777786 10.378448,168.793457 
M19.507515,162.266037 
	C19.806892,160.315918 20.699223,156.810425 20.311518,156.662628 
	C17.306025,155.516861 14.053411,155.019348 10.552925,154.249863 
	C10.552925,157.905899 10.552925,160.312469 10.552925,163.148895 
	C13.524404,162.997406 16.151596,162.863464 19.507515,162.266037 
z"/>
<path fill="#486DB8" opacity="1.000000" stroke="none" 
	d="
M99.249161,100.997528 
	C97.715424,100.562187 96.181694,100.126846 94.304024,99.593872 
	C94.304024,97.726219 94.304024,95.794067 94.827240,93.435379 
	C100.896523,93.009766 106.447250,92.869972 111.987289,93.053238 
	C117.014465,93.219543 122.030022,93.737610 127.050697,94.100586 
	C124.447922,95.653893 121.845139,97.207191 118.491829,98.866867 
	C111.577255,99.648010 105.413208,100.322769 99.249161,100.997528 
z"/>
<path fill="#596672" opacity="1.000000" stroke="none" 
	d="
M162.903137,168.083588 
	C162.309494,172.500214 159.667908,174.016846 155.913452,174.074692 
	C152.791946,174.122787 149.669098,174.084549 146.209274,174.084549 
	C146.209274,166.959244 146.209274,160.249146 146.209274,152.735474 
	C150.042969,152.735474 153.819504,152.503021 157.555084,152.794785 
	C162.137634,153.152710 163.138153,157.484634 160.110001,162.432968 
	C161.077530,164.260376 161.987183,165.978500 162.903137,168.083588 
M148.612396,165.640198 
	C148.612396,167.566208 148.612396,169.492233 148.612396,171.735794 
	C151.550369,171.735794 153.977936,172.205841 156.078064,171.578964 
	C157.608093,171.122253 158.706146,169.218338 159.996796,167.959625 
	C158.729004,166.678604 157.626938,164.608063 156.155106,164.299088 
	C153.869873,163.819382 151.332809,164.539246 148.612396,165.640198 
M148.016678,157.576920 
	C148.112793,158.979324 148.208908,160.381714 148.304657,161.778824 
	C151.226440,161.778824 153.733612,162.079590 156.107117,161.646942 
	C157.227539,161.442703 158.430740,159.982346 158.951385,158.805710 
	C159.292526,158.034729 158.447617,155.830200 158.185883,155.838867 
	C154.799194,155.950867 151.421875,156.345139 148.016678,157.576920 
z"/>
<path fill="#4576BD" opacity="1.000000" stroke="none" 
	d="
M127.380592,94.028976 
	C122.030022,93.737610 117.014465,93.219543 111.987289,93.053238 
	C106.447250,92.869972 100.896523,93.009766 94.934746,93.015282 
	C94.442726,92.264824 94.366417,91.507919 94.387672,90.379387 
	C105.205330,89.338829 115.921684,88.587532 126.650047,88.101128 
	C128.052689,88.037529 129.517014,89.334000 130.972107,90.393692 
	C129.897781,91.843689 128.804138,92.900520 127.380592,94.028976 
z"/>
<path fill="#713AA3" opacity="1.000000" stroke="none" 
	d="
M135.358810,124.873550 
	C136.947556,126.951057 138.536316,129.028549 140.966583,132.206451 
	C133.814285,132.206451 127.744110,132.609558 121.789627,131.957001 
	C120.038841,131.765121 118.615883,128.581924 117.345291,126.246628 
	C123.551537,125.440247 129.455170,125.156898 135.358810,124.873550 
z"/>
<path fill="#65717A" opacity="1.000000" stroke="none" 
	d="
M101.971954,158.633728 
	C103.943512,161.198990 105.564392,163.586304 107.185280,165.973633 
	C106.795441,166.372559 106.405602,166.771484 106.015770,167.170410 
	C102.101318,167.170410 98.186874,167.170410 94.192482,167.170410 
	C95.381943,172.757324 96.982933,173.195084 104.162651,170.283188 
	C104.410561,170.633484 104.658478,170.983795 104.906387,171.334091 
	C103.508118,172.323654 102.040306,174.216278 100.726044,174.115036 
	C97.979279,173.903503 93.863647,173.395370 92.946785,171.635483 
	C91.490967,168.841110 91.168190,164.554184 92.238823,161.570648 
	C93.625916,157.705276 97.703812,157.216553 101.971954,158.633728 
M102.672859,162.327927 
	C97.912773,158.729889 95.091972,159.556976 94.283737,165.179886 
	C96.119667,165.179886 97.956093,165.434647 99.673607,165.092499 
	C100.866646,164.854813 101.896156,163.796234 102.672859,162.327927 
z"/>
<path fill="#5065B3" opacity="1.000000" stroke="none" 
	d="
M99.353607,101.294525 
	C105.413208,100.322769 111.577255,99.648010 118.131111,98.928696 
	C119.363586,100.532661 120.206253,102.181190 120.887573,104.533325 
	C115.035133,105.863556 109.344032,106.490196 103.652924,107.116837 
	C102.254639,105.275070 100.856346,103.433304 99.353607,101.294525 
z"/>
<path fill="#683EA3" opacity="1.000000" stroke="none" 
	d="
M80.615044,119.012169 
	C80.670296,121.054642 80.725540,123.097107 80.265442,125.569366 
	C74.546646,125.333282 69.343193,124.667427 64.139740,124.001572 
	C64.093239,122.284004 64.046738,120.566437 64.522964,118.424637 
	C70.235474,118.337662 75.425255,118.674919 80.615044,119.012169 
z"/>
<path fill="#7434A0" opacity="1.000000" stroke="none" 
	d="
M64.065254,124.454636 
	C69.343193,124.667427 74.546646,125.333282 80.173706,125.998619 
	C80.674072,127.421570 80.750839,128.845047 80.602905,130.782684 
	C80.198410,131.476624 80.116852,131.693420 80.133522,131.947189 
	C75.002106,131.947189 69.870697,131.947189 63.990768,131.947189 
	C63.990768,129.724442 63.990768,127.316071 64.065254,124.454636 
z"/>
<path fill="#616D78" opacity="1.000000" stroke="none" 
	d="
M84.136024,158.268051 
	C84.133545,163.840668 84.133545,168.940979 84.133545,174.041306 
	C83.415215,174.038483 82.696877,174.035660 81.978546,174.032837 
	C81.978546,167.925766 81.978546,161.818710 81.978546,155.577606 
	C78.757332,155.018906 76.281982,154.589569 73.806633,154.160217 
	C73.861526,153.653748 73.916428,153.147263 73.971329,152.640778 
	C79.864304,152.640778 85.757286,152.640778 91.650261,152.640778 
	C91.780205,152.992355 91.910141,153.343918 92.040085,153.695496 
	C90.672363,154.071609 89.318954,154.684875 87.933586,154.768448 
	C85.838066,154.894852 83.771980,154.718399 84.136024,158.268051 
z"/>
<path fill="#5E49A7" opacity="1.000000" stroke="none" 
	d="
M80.708801,118.581581 
	C75.425255,118.674919 70.235474,118.337662 64.596008,118.000580 
	C64.096481,115.957603 64.046646,113.914459 64.472237,111.498047 
	C70.174026,111.419540 75.400391,111.714317 80.626747,112.009087 
	C80.685349,114.056389 80.743958,116.103691 80.708801,118.581581 
z"/>
<path fill="#31B1E0" opacity="1.000000" stroke="none" 
	d="
M112.105957,59.281998 
	C115.577400,58.706848 119.317780,58.427502 123.037773,57.979111 
	C126.577599,57.552444 130.096146,56.949219 133.878174,56.109810 
	C135.085709,57.630089 136.039139,59.464180 136.562469,61.651161 
	C130.341705,62.365936 124.550995,62.727825 118.760292,63.089714 
	C116.628853,61.894451 114.497414,60.699188 112.105957,59.281998 
z"/>
<path fill="#4670BA" opacity="1.000000" stroke="none" 
	d="
M80.650139,91.029091 
	C80.712585,92.414268 80.775024,93.799454 80.314102,95.593071 
	C74.576904,96.001381 69.363060,96.001251 64.149216,96.001114 
	C64.098572,93.961166 64.047935,91.921211 64.506248,89.441528 
	C70.226852,89.677551 75.438492,90.353325 80.650139,91.029091 
z"/>
<path fill="#5559AF" opacity="1.000000" stroke="none" 
	d="
M103.730026,107.450348 
	C109.344032,106.490196 115.035133,105.863556 120.983154,104.860222 
	C122.457375,106.074471 123.674683,107.665413 124.695221,109.884735 
	C118.683075,111.003120 112.867706,111.493134 107.052330,111.983154 
	C105.970596,110.583382 104.888863,109.183617 103.730026,107.450348 
z"/>
<path fill="#4B66B4" opacity="1.000000" stroke="none" 
	d="
M64.077255,96.424728 
	C69.363060,96.001251 74.576904,96.001381 80.220947,96.000229 
	C80.701195,97.709801 80.751251,99.420654 80.273880,101.560028 
	C74.537209,101.990532 69.327957,101.992516 64.118706,101.994507 
	C64.080894,100.279121 64.043091,98.563736 64.077255,96.424728 
z"/>
<path fill="#4089C6" opacity="1.000000" stroke="none" 
	d="
M135.442078,84.847252 
	C129.806396,84.382523 124.429886,83.709435 119.060287,82.985229 
	C118.443489,82.902031 117.865158,82.533615 117.030457,81.962021 
	C117.550064,80.806854 118.308205,79.987106 119.797562,79.050735 
	C126.290573,78.622223 132.052368,78.310341 137.814163,77.998466 
	C137.110535,80.206871 136.406906,82.415283 135.442078,84.847252 
z"/>
<path fill="#637079" opacity="1.000000" stroke="none" 
	d="
M41.856621,166.964935 
	C40.730831,168.557495 39.836670,169.862625 38.579430,171.697708 
	C41.994637,171.885605 44.757084,172.037598 47.519531,172.189590 
	C47.493423,172.651794 47.467316,173.113998 47.441208,173.576202 
	C43.252930,173.576202 39.064648,173.576202 33.552872,173.576202 
	C37.027439,169.082428 39.972195,165.273880 43.389317,160.854416 
	C40.212345,160.494644 37.746201,160.215363 35.280056,159.936081 
	C35.261730,159.561783 35.243408,159.187469 35.225086,158.813156 
	C39.021507,158.813156 42.817924,158.813156 47.839874,158.813156 
	C45.760143,161.656815 43.924194,164.167145 41.856621,166.964935 
z"/>
<path fill="#624AA8" opacity="1.000000" stroke="none" 
	d="
M112.649551,120.122742 
	C112.073097,119.377716 111.496651,118.632698 111.101028,117.261795 
	C112.934906,116.090981 114.563797,115.185616 116.245834,115.072815 
	C120.299774,114.800941 124.378578,114.899887 128.447357,114.849281 
	C129.590714,116.339333 130.734085,117.829391 131.748413,119.886284 
	C125.296104,120.342995 118.972824,120.232864 112.649551,120.122742 
z"/>
<path fill="#3C94CC" opacity="1.000000" stroke="none" 
	d="
M137.922165,77.649940 
	C132.052368,78.310341 126.290573,78.622223 120.030136,78.892632 
	C120.046066,77.147736 120.560646,75.444305 121.664696,73.376297 
	C127.671257,73.017548 133.088333,73.023376 138.505417,73.029205 
	C138.347000,74.453278 138.188583,75.877342 137.922165,77.649940 
z"/>
<path fill="#6A43A5" opacity="1.000000" stroke="none" 
	d="
M112.755875,120.448029 
	C118.972824,120.232864 125.296104,120.342995 131.827530,120.194008 
	C133.077316,121.364326 134.118942,122.793762 135.259705,124.548370 
	C129.455170,125.156898 123.551537,125.440247 117.254532,125.893440 
	C115.528168,124.299965 114.195190,122.536644 112.755875,120.448029 
z"/>
<path fill="#616D78" opacity="1.000000" stroke="none" 
	d="
M116.958725,160.398773 
	C112.258766,161.348175 110.628952,164.359772 111.755692,168.183624 
	C113.704063,174.795898 118.617500,171.050430 123.160385,170.141418 
	C121.321503,174.420074 118.335670,174.686905 115.263115,174.238495 
	C111.376991,173.671356 109.059761,171.318420 108.751671,167.291840 
	C108.461655,163.501495 109.599953,160.272705 113.283279,158.702133 
	C116.914490,157.153748 120.239769,157.710678 122.451263,161.952621 
	C120.764816,161.440460 119.078362,160.928284 116.958725,160.398773 
z"/>
<path fill="#36A7D9" opacity="1.000000" stroke="none" 
	d="
M118.876373,63.413681 
	C124.550995,62.727825 130.341705,62.365936 136.560120,62.003708 
	C137.414658,63.741642 137.841476,65.479912 137.789856,67.610413 
	C131.960114,67.998268 126.608818,67.993889 121.257523,67.989502 
	C120.502495,66.572212 119.747475,65.154930 118.876373,63.413681 
z"/>
<path fill="#4C7FC0" opacity="1.000000" stroke="none" 
	d="
M80.743286,90.586128 
	C75.438492,90.353325 70.226852,89.677551 64.568428,89.008118 
	C64.121651,87.423676 64.121651,85.832909 64.121651,83.985512 
	C69.649414,83.985512 74.840919,83.985512 80.836441,83.985512 
	C80.836441,86.051575 80.836441,88.097374 80.743286,90.586128 
z"/>
<path fill="#5755AC" opacity="1.000000" stroke="none" 
	d="
M80.717346,111.616867 
	C75.400391,111.714317 70.174026,111.419540 64.543625,111.065155 
	C64.090996,109.290932 64.042427,107.576324 64.466003,105.432281 
	C70.165268,106.010056 75.392380,107.017250 80.619492,108.024445 
	C80.682312,109.091179 80.745132,110.157921 80.717346,111.616867 
z"/>
<path fill="#7962B2" opacity="1.000000" stroke="none" 
	d="
M94.991241,113.034134 
	C96.404945,113.369026 97.810738,113.742920 99.233879,114.031158 
	C102.843353,114.762222 104.976456,116.859970 104.419510,120.612419 
	C103.917000,123.998131 101.613556,126.047844 98.097305,125.529320 
	C94.417770,124.986717 92.727478,122.507530 93.181702,118.725487 
	C93.298943,117.749313 93.418739,116.773445 93.712723,115.325333 
	C94.255806,114.246864 94.623528,113.640495 94.991241,113.034134 
M96.231621,118.800911 
	C95.740448,121.505409 96.872993,123.088608 99.576500,122.466896 
	C100.465103,122.262543 101.739769,120.066414 101.474358,119.197662 
	C100.654465,116.513947 98.723885,116.320061 96.231621,118.800911 
z"/>
<path fill="#5A666F" opacity="1.000000" stroke="none" 
	d="
M51.358360,152.499710 
	C52.098618,153.228821 52.914864,154.320709 52.986183,155.459259 
	C53.178013,158.521622 53.051716,161.603882 53.051716,165.637863 
	C56.589611,162.780472 59.300091,160.591354 62.010571,158.402237 
	C62.298622,158.760544 62.586674,159.118851 62.874725,159.477158 
	C61.310551,161.160309 59.746380,162.843460 58.208500,164.498306 
	C58.950417,166.230957 59.659904,167.887863 60.369392,169.544769 
	C60.110397,169.690033 59.851398,169.835281 59.592403,169.980530 
	C58.503796,169.019577 57.415192,168.058609 55.640770,166.492249 
	C54.580391,169.250275 53.671497,171.614288 52.762600,173.978302 
	C52.197842,173.961960 51.633083,173.945618 51.068325,173.929276 
	C50.903725,166.925705 50.922565,159.909866 51.358360,152.499710 
z"/>
<path fill="#3FA1D3" opacity="1.000000" stroke="none" 
	d="
M121.232574,68.408768 
	C126.608818,67.993889 131.960114,67.998268 137.762848,68.003036 
	C138.392563,69.444595 138.570801,70.885765 138.627228,72.678062 
	C133.088333,73.023376 127.671257,73.017548 121.812927,73.019302 
	C121.316986,71.627274 121.262299,70.227654 121.232574,68.408768 
z"/>
<path fill="#5D53AC" opacity="1.000000" stroke="none" 
	d="
M128.332611,114.526352 
	C124.378578,114.899887 120.299774,114.800941 116.245834,115.072815 
	C114.563797,115.185616 112.934906,116.090981 111.051712,116.978485 
	C109.623772,115.753181 108.425972,114.185303 107.140244,112.300293 
	C112.867706,111.493134 118.683075,111.003120 124.779831,110.204819 
	C126.113434,111.332161 127.165657,112.767792 128.332611,114.526352 
z"/>
<path fill="#707A84" opacity="1.000000" stroke="none" 
	d="
M186.049835,159.118439 
	C186.054581,162.067871 185.830597,164.575531 186.135437,167.017181 
	C186.398315,169.122726 187.263275,171.153107 188.078476,173.962616 
	C186.347137,175.268875 183.781525,174.814148 183.521896,171.774094 
	C182.976715,165.390503 183.319427,158.928833 183.398529,152.500458 
	C183.402664,152.163345 184.343491,151.837769 186.050674,150.718445 
	C186.050674,154.005402 186.050674,156.326706 186.049835,159.118439 
z"/>
<path fill="#5F63B2" opacity="1.000000" stroke="none" 
	d="
M80.715515,107.600113 
	C75.392380,107.017250 70.165268,106.010056 64.529388,105.007477 
	C64.070770,104.255348 64.020905,103.498619 64.044876,102.368195 
	C69.327957,101.992516 74.537209,101.990532 80.188171,101.980026 
	C80.690430,103.706261 80.750984,105.441017 80.715515,107.600113 
z"/>
<path fill="#707A84" opacity="1.000000" stroke="none" 
	d="
M131.076965,161.041824 
	C130.086273,165.336533 129.095581,169.631241 128.099533,173.949097 
	C125.530548,171.158737 125.505569,154.621170 128.718063,151.006943 
	C128.977280,154.318329 129.184174,156.961273 129.836792,160.058090 
	C130.500656,160.758575 130.765472,160.935196 131.076965,161.041824 
z"/>
<path fill="#4A8DC6" opacity="1.000000" stroke="none" 
	d="
M19.740526,83.985245 
	C19.627317,89.198044 19.514111,94.410835 19.244007,100.404846 
	C18.468908,101.769806 17.850706,102.353546 17.232506,102.937286 
	C17.656881,93.500542 18.081257,84.063797 19.116360,74.315887 
	C20.216116,74.016731 20.705143,74.028725 21.194168,74.040718 
	C20.797344,76.760834 20.400522,79.480949 19.778622,82.688576 
	C19.333103,83.497002 19.395432,83.766724 19.740526,83.985245 
z"/>
<path fill="#625BAF" opacity="1.000000" stroke="none" 
	d="
M184.581879,109.075821 
	C183.789856,112.197723 183.287552,115.430557 182.143875,118.417839 
	C179.948395,124.152451 177.389069,129.747787 174.980667,135.400894 
	C174.239471,135.105164 173.498276,134.809448 172.757065,134.513718 
	C174.471481,130.638992 176.380829,126.836357 177.847534,122.870033 
	C179.432938,118.582748 180.604874,114.142570 182.466919,109.395966 
	C183.511765,109.040504 184.046814,109.058167 184.581879,109.075821 
z"/>
<path fill="#596672" opacity="1.000000" stroke="none" 
	d="
M131.422943,160.958649 
	C130.765472,160.935196 130.500656,160.758575 130.162857,160.303055 
	C132.459137,159.555023 135.421570,157.924728 137.137222,158.783936 
	C138.850418,159.641907 139.782944,162.908630 140.206863,165.271988 
	C140.716431,168.112869 140.327347,171.114960 140.327347,174.047241 
	C139.507904,174.024017 138.688461,174.000793 137.869019,173.977570 
	C137.869019,171.042130 137.948013,168.104050 137.849808,165.171890 
	C137.715088,161.150360 135.912552,159.310791 131.422943,160.958649 
z"/>
<path fill="#527BBD" opacity="1.000000" stroke="none" 
	d="
M184.745758,108.706497 
	C184.046814,109.058167 183.511765,109.040504 182.576355,109.019356 
	C182.747192,100.888580 183.318359,92.761292 183.889526,84.634010 
	C184.229553,84.642776 184.569595,84.651543 184.909622,84.660309 
	C184.909622,92.552597 184.909622,100.444893 184.745758,108.706497 
z"/>
<path fill="#5B60B5" opacity="1.000000" stroke="none" 
	d="
M20.904049,110.043221 
	C22.970968,116.215202 25.000521,122.400078 27.124136,128.552490 
	C27.917200,130.850098 28.929712,133.071976 29.470467,135.461227 
	C25.636827,133.014069 19.653790,118.692841 19.031551,110.439423 
	C19.884335,110.020981 20.394192,110.032097 20.904049,110.043221 
z"/>
<path fill="#419FD1" opacity="1.000000" stroke="none" 
	d="
M178.206497,58.915573 
	C182.723221,64.964951 183.979080,71.841560 183.198166,79.255554 
	C180.873459,72.744980 178.548737,66.234406 176.506287,59.354977 
	C177.261185,58.962605 177.733841,58.939087 178.206497,58.915573 
z"/>
<path fill="#3ECCE6" opacity="1.000000" stroke="none" 
	d="
M33.098675,43.040516 
	C36.978939,38.686245 40.859203,34.331974 45.538876,29.954132 
	C46.997433,29.994555 47.656582,30.058548 48.315731,30.122540 
	C44.140747,34.662510 39.965767,39.202480 35.240723,43.816708 
	C34.160000,43.607483 33.629337,43.323997 33.098675,43.040516 
z"/>
<path fill="#48BADF" opacity="1.000000" stroke="none" 
	d="
M178.172516,58.529030 
	C177.733841,58.939087 177.261185,58.962605 176.434174,59.002754 
	C173.513504,54.122566 170.947189,49.225754 168.255295,43.965431 
	C168.129700,43.601917 168.289597,43.300957 168.359360,43.259491 
	C174.241348,46.517136 176.430222,52.173496 178.172516,58.529030 
z"/>
<path fill="#40BADF" opacity="1.000000" stroke="none" 
	d="
M32.842079,43.257355 
	C33.629337,43.323997 34.160000,43.607483 34.970982,44.003265 
	C32.362137,48.639072 29.472975,53.162579 26.144981,57.601704 
	C25.383657,57.310696 25.061165,57.104061 24.738670,56.897427 
	C27.354277,52.423016 29.969881,47.948605 32.842079,43.257355 
z"/>
<path fill="#6F8FC5" opacity="1.000000" stroke="none" 
	d="
M86.055496,101.019379 
	C86.055496,95.218658 86.055496,89.417931 86.055496,83.617210 
	C86.689110,83.595055 87.322716,83.572891 87.956329,83.550735 
	C90.040695,88.897057 88.435173,94.620377 88.409431,100.584930 
	C87.340324,101.027237 86.697914,101.023308 86.055496,101.019379 
z"/>
<path fill="#56626C" opacity="1.000000" stroke="none" 
	d="
M174.801819,167.810791 
	C174.801498,162.234879 174.801498,157.139236 174.801498,152.043610 
	C175.300842,151.994583 175.800171,151.945572 176.299515,151.896545 
	C179.325287,158.544128 174.183044,166.916779 179.537781,173.176926 
	C175.772385,175.043396 174.991074,174.323151 174.801819,167.810791 
z"/>
<path fill="#42A5D2" opacity="1.000000" stroke="none" 
	d="
M24.468668,57.117966 
	C25.061165,57.104061 25.383657,57.310696 25.855862,57.765930 
	C24.551805,63.171116 23.098038,68.327698 21.419220,73.762497 
	C20.705143,74.028725 20.216116,74.016731 19.360363,74.005066 
	C20.728645,68.449760 22.463655,62.894131 24.468668,57.117966 
z"/>
<path fill="#DAF4FA" opacity="1.000000" stroke="none" 
	d="
M58.978069,67.582596 
	C58.357929,68.634758 57.592308,69.245979 57.046787,70.013618 
	C56.154678,71.268967 55.405865,72.626144 54.596603,73.940361 
	C53.441349,73.184006 52.286098,72.427658 51.130844,71.671310 
	C52.122890,70.450615 53.118481,69.232780 54.103462,68.006409 
	C54.267277,67.802452 54.384830,67.561348 54.668709,67.103752 
	C53.914204,67.001030 53.295506,66.916801 52.311516,66.771149 
	C54.500950,63.729084 56.818512,64.047310 58.978069,67.582596 
z"/>
<path fill="#6768B6" opacity="1.000000" stroke="none" 
	d="
M85.996399,101.442581 
	C86.697914,101.023308 87.340324,101.027237 88.303406,101.044739 
	C87.673401,106.433067 91.648933,109.181656 94.838852,112.732208 
	C94.623528,113.640495 94.255806,114.246864 93.601624,114.893974 
	C89.687943,111.237732 84.440971,108.455162 85.996399,101.442581 
z"/>
<path fill="#69747C" opacity="1.000000" stroke="none" 
	d="
M28.099218,167.902283 
	C28.100027,164.348755 28.100027,161.265259 28.100027,158.181778 
	C28.831083,158.187759 29.562141,158.193756 30.293198,158.199753 
	C30.293198,163.430481 30.293198,168.661224 30.293198,173.891953 
	C29.775875,173.986725 29.258554,174.081497 28.741232,174.176270 
	C28.526958,172.241623 28.312683,170.306961 28.099218,167.902283 
z"/>
<path fill="#707A84" opacity="1.000000" stroke="none" 
	d="
M70.778610,161.471527 
	C70.637405,165.960876 70.493568,170.006851 70.349731,174.052826 
	C69.726357,174.010345 69.102974,173.967850 68.479591,173.925369 
	C68.479591,168.764542 68.479591,163.603699 68.479591,158.442871 
	C68.852684,158.328857 69.225784,158.214844 69.598877,158.100830 
	C69.991249,159.076599 70.383614,160.052368 70.778610,161.471527 
z"/>
<path fill="#5A666F" opacity="1.000000" stroke="none" 
	d="
M168.620575,158.547028 
	C168.987610,163.803467 168.987610,168.870651 168.987610,173.937836 
	C168.420700,173.917740 167.853790,173.897644 167.286896,173.877533 
	C167.330597,168.702789 165.384598,163.517380 168.620575,158.547028 
z"/>
<path fill="#6F8FC5" opacity="1.000000" stroke="none" 
	d="
M20.952883,109.636230 
	C20.394192,110.032097 19.884335,110.020981 18.990868,110.025597 
	C18.112879,107.926056 17.618498,105.810791 17.178310,103.316406 
	C17.850706,102.353546 18.468908,101.769806 19.177034,100.833488 
	C19.845211,103.397026 20.423464,106.313133 20.952883,109.636230 
z"/>
<path fill="#36D2EA" opacity="1.000000" stroke="none" 
	d="
M48.579597,30.015236 
	C47.656582,30.058548 46.997433,29.994555 45.842957,29.866608 
	C46.473221,28.747952 47.598820,27.693247 49.009621,26.498667 
	C49.542881,26.600172 49.790943,26.841549 50.353661,27.503735 
	C50.060036,28.585672 49.451752,29.246801 48.579597,30.015236 
z"/>
<path fill="#DAF4FA" opacity="1.000000" stroke="none" 
	d="
M60.986679,69.363907 
	C60.406605,69.304970 59.755535,68.964439 59.074619,68.299843 
	C59.668407,68.344627 60.292046,68.713470 60.986679,69.363907 
z"/>
<path fill="#6F8FC5" opacity="1.000000" stroke="none" 
	d="
M19.830967,83.747879 
	C19.395432,83.766724 19.333103,83.497002 19.697186,83.092514 
	C19.867687,83.176125 19.894547,83.343315 19.830967,83.747879 
z"/>
<path fill="#5F63B2" opacity="1.000000" stroke="none" 
	d="
M80.346825,131.923615 
	C80.116852,131.693420 80.198410,131.476624 80.531006,131.206116 
	C80.856949,131.410904 80.815720,131.672455 80.346825,131.923615 
z"/>
<path fill="#DAF4FA" opacity="1.000000" stroke="none" 
	d="
M99.009140,74.980225 
	C96.064072,75.077316 93.243248,74.682320 94.055061,70.755600 
	C94.251480,69.805511 96.727074,68.398972 97.673225,68.702553 
	C100.716484,69.679024 99.783554,72.119682 98.936478,74.666260 
	C98.977615,75.034096 98.983894,74.983566 99.009140,74.980225 
z"/>
<path fill="#F6F7F7" opacity="1.000000" stroke="none" 
	d="
M19.143150,162.497772 
	C16.151596,162.863464 13.524404,162.997406 10.552925,163.148895 
	C10.552925,160.312469 10.552925,157.905899 10.552925,154.249863 
	C14.053411,155.019348 17.306025,155.516861 20.311518,156.662628 
	C20.699223,156.810425 19.806892,160.315918 19.143150,162.497772 
z"/>
<path fill="#F1F3F4" opacity="1.000000" stroke="none" 
	d="
M148.757446,165.195389 
	C151.332809,164.539246 153.869873,163.819382 156.155106,164.299088 
	C157.626938,164.608063 158.729004,166.678604 159.996796,167.959625 
	C158.706146,169.218338 157.608093,171.122253 156.078064,171.578964 
	C153.977936,172.205841 151.550369,171.735794 148.612396,171.735794 
	C148.612396,169.492233 148.612396,167.566208 148.757446,165.195389 
z"/>
<path fill="#F9FBFA" opacity="1.000000" stroke="none" 
	d="
M148.029419,157.122528 
	C151.421875,156.345139 154.799194,155.950867 158.185883,155.838867 
	C158.447617,155.830200 159.292526,158.034729 158.951385,158.805710 
	C158.430740,159.982346 157.227539,161.442703 156.107117,161.646942 
	C153.733612,162.079590 151.226440,161.778824 148.304657,161.778824 
	C148.208908,160.381714 148.112793,158.979324 148.029419,157.122528 
z"/>
<path fill="#F1F3F4" opacity="1.000000" stroke="none" 
	d="
M102.835793,162.716171 
	C101.896156,163.796234 100.866646,164.854813 99.673607,165.092499 
	C97.956093,165.434647 96.119667,165.179886 94.283737,165.179886 
	C95.091972,159.556976 97.912773,158.729889 102.835793,162.716171 
z"/>
<path fill="#EBE6F3" opacity="1.000000" stroke="none" 
	d="
M96.430603,118.482666 
	C98.723885,116.320061 100.654465,116.513947 101.474358,119.197662 
	C101.739769,120.066414 100.465103,122.262543 99.576500,122.466896 
	C96.872993,123.088608 95.740448,121.505409 96.430603,118.482666 
z"/>
</svg>